<mxfile host="app.diagrams.net" modified="2024-02-20T19:55:32.256Z" agent="Mozilla/5.0 (X11; Linux x86_64) AppleWebKit/537.36 (KHTML, like Gecko) Chrome/121.0.0.0 Safari/537.36" etag="NWgrUDZbAcI8Qx2a0Ti3" version="23.1.3" type="device">
  <diagram id="C5RBs43oDa-KdzZeNtuy" name="Page-1">
    <mxGraphModel dx="1301" dy="759" grid="1" gridSize="10" guides="1" tooltips="1" connect="1" arrows="1" fold="1" page="1" pageScale="1" pageWidth="827" pageHeight="1169" math="0" shadow="0">
      <root>
        <mxCell id="WIyWlLk6GJQsqaUBKTNV-0" />
        <mxCell id="WIyWlLk6GJQsqaUBKTNV-1" parent="WIyWlLk6GJQsqaUBKTNV-0" />
        <mxCell id="RHyhjcAiuvz86e3YybD6-36" value="" style="whiteSpace=wrap;html=1;dashed=1;fillColor=none;" parent="WIyWlLk6GJQsqaUBKTNV-1" vertex="1">
          <mxGeometry x="-440" y="190" width="440" height="410" as="geometry" />
        </mxCell>
        <mxCell id="hR0XmN8ywbHjlMw9yo-G-7" style="edgeStyle=orthogonalEdgeStyle;rounded=0;orthogonalLoop=1;jettySize=auto;html=1;exitX=0.25;exitY=1;exitDx=0;exitDy=0;entryX=0.25;entryY=0;entryDx=0;entryDy=0;jumpStyle=sharp;" edge="1" parent="WIyWlLk6GJQsqaUBKTNV-1" source="RHyhjcAiuvz86e3YybD6-0" target="RHyhjcAiuvz86e3YybD6-19">
          <mxGeometry relative="1" as="geometry">
            <Array as="points">
              <mxPoint x="-230" y="290" />
              <mxPoint x="-395" y="290" />
            </Array>
          </mxGeometry>
        </mxCell>
        <mxCell id="hR0XmN8ywbHjlMw9yo-G-12" style="edgeStyle=orthogonalEdgeStyle;rounded=0;orthogonalLoop=1;jettySize=auto;html=1;exitX=0.75;exitY=1;exitDx=0;exitDy=0;entryX=0.75;entryY=0;entryDx=0;entryDy=0;" edge="1" parent="WIyWlLk6GJQsqaUBKTNV-1" source="RHyhjcAiuvz86e3YybD6-0" target="RHyhjcAiuvz86e3YybD6-16">
          <mxGeometry relative="1" as="geometry">
            <Array as="points">
              <mxPoint x="-170" y="290" />
              <mxPoint x="-40" y="290" />
              <mxPoint x="-40" y="610" />
              <mxPoint x="-92" y="610" />
            </Array>
          </mxGeometry>
        </mxCell>
        <mxCell id="RHyhjcAiuvz86e3YybD6-0" value="n = p * q" style="rounded=0;whiteSpace=wrap;html=1;" parent="WIyWlLk6GJQsqaUBKTNV-1" vertex="1">
          <mxGeometry x="-260" y="200" width="120" height="60" as="geometry" />
        </mxCell>
        <mxCell id="hR0XmN8ywbHjlMw9yo-G-8" style="edgeStyle=orthogonalEdgeStyle;rounded=0;orthogonalLoop=1;jettySize=auto;html=1;exitX=0.5;exitY=1;exitDx=0;exitDy=0;entryX=0.5;entryY=0;entryDx=0;entryDy=0;" edge="1" parent="WIyWlLk6GJQsqaUBKTNV-1" source="RHyhjcAiuvz86e3YybD6-1" target="RHyhjcAiuvz86e3YybD6-9">
          <mxGeometry relative="1" as="geometry" />
        </mxCell>
        <mxCell id="RHyhjcAiuvz86e3YybD6-1" value="φ(n) = (p-1) * (q-1)" style="rounded=0;whiteSpace=wrap;html=1;" parent="WIyWlLk6GJQsqaUBKTNV-1" vertex="1">
          <mxGeometry x="-340" y="320" width="140" height="60" as="geometry" />
        </mxCell>
        <mxCell id="RHyhjcAiuvz86e3YybD6-2" value="" style="endArrow=classic;html=1;rounded=0;entryX=0.25;entryY=0;entryDx=0;entryDy=0;exitX=0.25;exitY=1;exitDx=0;exitDy=0;" parent="WIyWlLk6GJQsqaUBKTNV-1" source="RHyhjcAiuvz86e3YybD6-31" target="RHyhjcAiuvz86e3YybD6-0" edge="1">
          <mxGeometry width="50" height="50" relative="1" as="geometry">
            <mxPoint x="-34" y="111" as="sourcePoint" />
            <mxPoint x="380" y="190" as="targetPoint" />
          </mxGeometry>
        </mxCell>
        <mxCell id="RHyhjcAiuvz86e3YybD6-6" value="p" style="edgeLabel;html=1;align=center;verticalAlign=middle;resizable=0;points=[];" parent="RHyhjcAiuvz86e3YybD6-2" vertex="1" connectable="0">
          <mxGeometry x="-0.3818" relative="1" as="geometry">
            <mxPoint x="-4" as="offset" />
          </mxGeometry>
        </mxCell>
        <mxCell id="RHyhjcAiuvz86e3YybD6-3" value="" style="endArrow=classic;html=1;rounded=0;entryX=0.75;entryY=0;entryDx=0;entryDy=0;exitX=0.75;exitY=1;exitDx=0;exitDy=0;" parent="WIyWlLk6GJQsqaUBKTNV-1" source="RHyhjcAiuvz86e3YybD6-31" target="RHyhjcAiuvz86e3YybD6-0" edge="1">
          <mxGeometry width="50" height="50" relative="1" as="geometry">
            <mxPoint x="-40" y="142" as="sourcePoint" />
            <mxPoint x="60" y="140" as="targetPoint" />
          </mxGeometry>
        </mxCell>
        <mxCell id="RHyhjcAiuvz86e3YybD6-7" value="q" style="edgeLabel;html=1;align=center;verticalAlign=middle;resizable=0;points=[];" parent="RHyhjcAiuvz86e3YybD6-3" vertex="1" connectable="0">
          <mxGeometry x="-0.402" relative="1" as="geometry">
            <mxPoint as="offset" />
          </mxGeometry>
        </mxCell>
        <mxCell id="RHyhjcAiuvz86e3YybD6-12" value="" style="edgeStyle=orthogonalEdgeStyle;rounded=0;orthogonalLoop=1;jettySize=auto;html=1;entryX=0.25;entryY=0;entryDx=0;entryDy=0;exitX=0.5;exitY=1;exitDx=0;exitDy=0;" parent="WIyWlLk6GJQsqaUBKTNV-1" source="RHyhjcAiuvz86e3YybD6-9" target="RHyhjcAiuvz86e3YybD6-11" edge="1">
          <mxGeometry relative="1" as="geometry">
            <mxPoint x="-130" y="510" as="targetPoint" />
            <Array as="points">
              <mxPoint x="-270" y="505" />
              <mxPoint x="-165" y="505" />
            </Array>
          </mxGeometry>
        </mxCell>
        <mxCell id="hR0XmN8ywbHjlMw9yo-G-11" style="edgeStyle=orthogonalEdgeStyle;rounded=0;orthogonalLoop=1;jettySize=auto;html=1;exitX=0.5;exitY=1;exitDx=0;exitDy=0;entryX=0.75;entryY=0;entryDx=0;entryDy=0;" edge="1" parent="WIyWlLk6GJQsqaUBKTNV-1" source="RHyhjcAiuvz86e3YybD6-9" target="RHyhjcAiuvz86e3YybD6-19">
          <mxGeometry relative="1" as="geometry">
            <Array as="points">
              <mxPoint x="-270" y="560" />
              <mxPoint x="-318" y="560" />
            </Array>
          </mxGeometry>
        </mxCell>
        <mxCell id="RHyhjcAiuvz86e3YybD6-9" value="Volba e pomocí GCD&lt;br&gt;(φ(n), e) = 1 &amp;lt; e &amp;lt; φ(n)" style="whiteSpace=wrap;html=1;rounded=0;" parent="WIyWlLk6GJQsqaUBKTNV-1" vertex="1">
          <mxGeometry x="-340" y="430" width="140" height="60" as="geometry" />
        </mxCell>
        <mxCell id="hR0XmN8ywbHjlMw9yo-G-14" style="edgeStyle=orthogonalEdgeStyle;rounded=0;orthogonalLoop=1;jettySize=auto;html=1;exitX=0.5;exitY=1;exitDx=0;exitDy=0;entryX=0.5;entryY=0;entryDx=0;entryDy=0;" edge="1" parent="WIyWlLk6GJQsqaUBKTNV-1" source="RHyhjcAiuvz86e3YybD6-11" target="RHyhjcAiuvz86e3YybD6-16">
          <mxGeometry relative="1" as="geometry" />
        </mxCell>
        <mxCell id="RHyhjcAiuvz86e3YybD6-11" value="Výpočet d&lt;br&gt;&amp;nbsp;e * d mod φ(n) = 1" style="whiteSpace=wrap;html=1;rounded=0;" parent="WIyWlLk6GJQsqaUBKTNV-1" vertex="1">
          <mxGeometry x="-200" y="525" width="140" height="60" as="geometry" />
        </mxCell>
        <mxCell id="hR0XmN8ywbHjlMw9yo-G-13" style="edgeStyle=orthogonalEdgeStyle;rounded=0;orthogonalLoop=1;jettySize=auto;html=1;exitX=0.5;exitY=1;exitDx=0;exitDy=0;entryX=0.5;entryY=0;entryDx=0;entryDy=0;" edge="1" parent="WIyWlLk6GJQsqaUBKTNV-1" source="RHyhjcAiuvz86e3YybD6-16" target="RHyhjcAiuvz86e3YybD6-17">
          <mxGeometry relative="1" as="geometry" />
        </mxCell>
        <mxCell id="RHyhjcAiuvz86e3YybD6-16" value="Dešifrování&lt;br&gt;P = Cᴰ mod n" style="rounded=0;whiteSpace=wrap;html=1;" parent="WIyWlLk6GJQsqaUBKTNV-1" vertex="1">
          <mxGeometry x="-205" y="640" width="150" height="60" as="geometry" />
        </mxCell>
        <mxCell id="RHyhjcAiuvz86e3YybD6-17" value="Otevřený text" style="shape=parallelogram;perimeter=parallelogramPerimeter;whiteSpace=wrap;html=1;fixedSize=1;rounded=0;" parent="WIyWlLk6GJQsqaUBKTNV-1" vertex="1">
          <mxGeometry x="-190" y="740" width="120" height="60" as="geometry" />
        </mxCell>
        <mxCell id="RHyhjcAiuvz86e3YybD6-30" style="edgeStyle=orthogonalEdgeStyle;rounded=0;orthogonalLoop=1;jettySize=auto;html=1;exitX=0.5;exitY=1;exitDx=0;exitDy=0;entryX=0.5;entryY=0;entryDx=0;entryDy=0;" parent="WIyWlLk6GJQsqaUBKTNV-1" source="RHyhjcAiuvz86e3YybD6-19" target="RHyhjcAiuvz86e3YybD6-29" edge="1">
          <mxGeometry relative="1" as="geometry" />
        </mxCell>
        <mxCell id="RHyhjcAiuvz86e3YybD6-19" value="Šifrování&lt;br&gt;C = Pᵉ&amp;nbsp;mod n" style="rounded=0;whiteSpace=wrap;html=1;" parent="WIyWlLk6GJQsqaUBKTNV-1" vertex="1">
          <mxGeometry x="-433" y="630" width="153" height="60" as="geometry" />
        </mxCell>
        <mxCell id="hR0XmN8ywbHjlMw9yo-G-4" style="edgeStyle=orthogonalEdgeStyle;rounded=0;orthogonalLoop=1;jettySize=auto;html=1;exitX=0.5;exitY=1;exitDx=0;exitDy=0;entryX=0;entryY=0.5;entryDx=0;entryDy=0;jumpStyle=sharp;" edge="1" parent="WIyWlLk6GJQsqaUBKTNV-1" source="RHyhjcAiuvz86e3YybD6-21" target="RHyhjcAiuvz86e3YybD6-19">
          <mxGeometry relative="1" as="geometry">
            <Array as="points">
              <mxPoint x="-340" y="110" />
              <mxPoint x="-460" y="110" />
              <mxPoint x="-460" y="660" />
            </Array>
          </mxGeometry>
        </mxCell>
        <mxCell id="RHyhjcAiuvz86e3YybD6-21" value="Otevřený text" style="shape=parallelogram;perimeter=parallelogramPerimeter;whiteSpace=wrap;html=1;fixedSize=1;" parent="WIyWlLk6GJQsqaUBKTNV-1" vertex="1">
          <mxGeometry x="-400" y="20" width="120" height="60" as="geometry" />
        </mxCell>
        <mxCell id="hR0XmN8ywbHjlMw9yo-G-15" style="edgeStyle=orthogonalEdgeStyle;rounded=0;orthogonalLoop=1;jettySize=auto;html=1;exitX=0.5;exitY=1;exitDx=0;exitDy=0;entryX=1;entryY=0.5;entryDx=0;entryDy=0;" edge="1" parent="WIyWlLk6GJQsqaUBKTNV-1" source="RHyhjcAiuvz86e3YybD6-26" target="RHyhjcAiuvz86e3YybD6-16">
          <mxGeometry relative="1" as="geometry">
            <Array as="points">
              <mxPoint x="-60" y="120" />
              <mxPoint x="10" y="120" />
              <mxPoint x="10" y="670" />
            </Array>
          </mxGeometry>
        </mxCell>
        <mxCell id="RHyhjcAiuvz86e3YybD6-26" value="Zašifrovaný text" style="shape=parallelogram;perimeter=parallelogramPerimeter;whiteSpace=wrap;html=1;fixedSize=1;" parent="WIyWlLk6GJQsqaUBKTNV-1" vertex="1">
          <mxGeometry x="-120" y="20" width="120" height="60" as="geometry" />
        </mxCell>
        <mxCell id="RHyhjcAiuvz86e3YybD6-29" value="Zašifrovaný text" style="shape=parallelogram;perimeter=parallelogramPerimeter;whiteSpace=wrap;html=1;fixedSize=1;" parent="WIyWlLk6GJQsqaUBKTNV-1" vertex="1">
          <mxGeometry x="-416.5" y="740" width="120" height="60" as="geometry" />
        </mxCell>
        <mxCell id="RHyhjcAiuvz86e3YybD6-37" value="Generování klíčů" style="text;html=1;strokeColor=none;fillColor=none;align=center;verticalAlign=middle;whiteSpace=wrap;rounded=0;" parent="WIyWlLk6GJQsqaUBKTNV-1" vertex="1">
          <mxGeometry x="-100" y="170" width="100" height="20" as="geometry" />
        </mxCell>
        <mxCell id="RHyhjcAiuvz86e3YybD6-31" value="Hodnoty ke generování klíčů" style="shape=parallelogram;perimeter=parallelogramPerimeter;whiteSpace=wrap;html=1;fixedSize=1;" parent="WIyWlLk6GJQsqaUBKTNV-1" vertex="1">
          <mxGeometry x="-260" y="20" width="120" height="60" as="geometry" />
        </mxCell>
        <mxCell id="hR0XmN8ywbHjlMw9yo-G-5" value="" style="endArrow=classic;html=1;rounded=0;entryX=0.25;entryY=0;entryDx=0;entryDy=0;jumpStyle=sharp;" edge="1" parent="WIyWlLk6GJQsqaUBKTNV-1" target="RHyhjcAiuvz86e3YybD6-1">
          <mxGeometry width="50" height="50" relative="1" as="geometry">
            <mxPoint x="-230" y="150" as="sourcePoint" />
            <mxPoint x="-90" y="400" as="targetPoint" />
            <Array as="points">
              <mxPoint x="-305" y="150" />
            </Array>
          </mxGeometry>
        </mxCell>
        <mxCell id="hR0XmN8ywbHjlMw9yo-G-6" value="" style="endArrow=none;html=1;rounded=0;exitX=0.5;exitY=0;exitDx=0;exitDy=0;edgeStyle=orthogonalEdgeStyle;startArrow=classic;startFill=1;jumpStyle=sharp;" edge="1" parent="WIyWlLk6GJQsqaUBKTNV-1" source="RHyhjcAiuvz86e3YybD6-1">
          <mxGeometry width="50" height="50" relative="1" as="geometry">
            <mxPoint x="-140" y="450" as="sourcePoint" />
            <mxPoint x="-170" y="160" as="targetPoint" />
            <Array as="points">
              <mxPoint x="-270" y="320" />
              <mxPoint x="-270" y="160" />
            </Array>
          </mxGeometry>
        </mxCell>
        <mxCell id="hR0XmN8ywbHjlMw9yo-G-10" value="" style="endArrow=classic;html=1;rounded=0;entryX=0.75;entryY=0;entryDx=0;entryDy=0;" edge="1" parent="WIyWlLk6GJQsqaUBKTNV-1" target="RHyhjcAiuvz86e3YybD6-11">
          <mxGeometry width="50" height="50" relative="1" as="geometry">
            <mxPoint x="-270" y="400" as="sourcePoint" />
            <mxPoint x="-110" y="430" as="targetPoint" />
            <Array as="points">
              <mxPoint x="-95" y="400" />
            </Array>
          </mxGeometry>
        </mxCell>
      </root>
    </mxGraphModel>
  </diagram>
</mxfile>
